<?xml version="1.0" encoding="utf-8"?>
<!-- Generator: Adobe Illustrator 24.1.1, SVG Export Plug-In . SVG Version: 6.00 Build 0)  -->
<svg version="1.1" id="Layer_1" xmlns="http://www.w3.org/2000/svg" xmlns:xlink="http://www.w3.org/1999/xlink" x="0px" y="0px"
	 viewBox="0 0 512 512" style="enable-background:new 0 0 512 512;" xml:space="preserve">
<style type="text/css">
	.st0{fill:#333333;}
</style>
<g id="XMLID_2_">
	<path id="XMLID_8_" class="st0" d="M67,89.4v-67h44.7v67h67v44.7h-67v66.1H67v-67H0V88.4h67V89.4z M133.1,222.5v-67h67v-67h155.5
		l41,44.7h70.7c24.2,0,44.7,20.5,44.7,44.7V445c0,24.2-20.5,44.7-44.7,44.7H111.7C87.5,489.7,67,469.2,67,445V222.5H133.1z
		 M289.5,422.6c61.4,0,111.7-50.3,111.7-111.7S351,199.2,289.5,199.2s-111.7,50.3-111.7,111.7S228.1,422.6,289.5,422.6z
		 M217.8,311.9c0,39.1,31.7,71.7,71.7,71.7s71.7-31.7,71.7-71.7c0-39.1-31.7-71.7-71.7-71.7C250.4,240.2,217.8,271.8,217.8,311.9z"
		/>
</g>
</svg>
